HIERARCHY
ROOT Hips
{
	OFFSET 0.000000 0.000000 0.000000 
	CHANNELS 6 Xposition Yposition Zposition Zrotation Yrotation Xrotation
	JOINT LeftUpLeg
	{
		OFFSET 1.363060 -1.794630 0.839290 
		CHANNELS 3 Zrotation Yrotation Xrotation
		JOINT LeftLeg
		{
			OFFSET 2.448110 -6.726130 0.000000 
			CHANNELS 3 Zrotation Yrotation Xrotation
			JOINT LeftFoot
			{
				OFFSET 2.562200 -7.039590 0.000000 
				CHANNELS 3 Zrotation Yrotation Xrotation
				JOINT LeftToeBase
				{
					OFFSET 0.157640 -0.433110 2.322550 
					CHANNELS 3 Zrotation Yrotation Xrotation
					End Site
					{
						OFFSET 0.000000 0.000000 0.000000 
					}
				}
			}
		}
	}
	JOINT RightUpLeg
	{
		OFFSET -1.305520 -1.794630 0.839290 
		CHANNELS 3 Zrotation Yrotation Xrotation
		JOINT RightLeg
		{
			OFFSET -2.542530 -6.985550 0.000000 
			CHANNELS 3 Zrotation Yrotation Xrotation
			JOINT RightFoot
			{
				OFFSET -2.568260 -7.056230 0.000000 
				CHANNELS 3 Zrotation Yrotation Xrotation
				JOINT RightToeBase
				{
					OFFSET -0.164730 -0.452590 2.363150 
					CHANNELS 3 Zrotation Yrotation Xrotation
					End Site
					{
						OFFSET 0.000000 0.000000 0.000000 
					}
				}
			}
		}
	}
	JOINT Spine
	{
		OFFSET 0.028270 2.035590 -0.193380 
		CHANNELS 3 Zrotation Yrotation Xrotation
		JOINT Spine1
		{
			OFFSET 0.056720 2.048850 -0.042750 
			CHANNELS 3 Zrotation Yrotation Xrotation
			JOINT Neck1
			{
				OFFSET -0.054170 1.746240 0.172020 
				CHANNELS 3 Zrotation Yrotation Xrotation
				JOINT Head
				{
					OFFSET 0.104070 1.761360 -0.123970 
					CHANNELS 3 Zrotation Yrotation Xrotation
					End Site
					{
						OFFSET 0.000000 0.000000 0.000000 
					}
				}
			}
			JOINT LeftArm
			{
				OFFSET 3.362410 1.200890 -0.311210 
				CHANNELS 3 Zrotation Yrotation Xrotation
				JOINT LeftForeArm
				{
					OFFSET 4.983000 -0.000000 -0.000000 
					CHANNELS 3 Zrotation Yrotation Xrotation
					JOINT LeftHand
					{
						OFFSET 3.483560 -0.000000 -0.000000 
						CHANNELS 3 Zrotation Yrotation Xrotation
						JOINT LeftHandIndex1
						{
							OFFSET 0.715260 -0.000000 -0.000000 
							CHANNELS 3 Zrotation Yrotation Xrotation
							End Site
							{
								OFFSET 0.000000 0.000000 0.000000 
							}
						}
					}
				}
			}
			JOINT RightArm
			{
				OFFSET -3.136600 1.374050 -0.404650 
				CHANNELS 3 Zrotation Yrotation Xrotation
				JOINT RightForeArm
				{
					OFFSET -5.241900 -0.000000 -0.000000 
					CHANNELS 3 Zrotation Yrotation Xrotation
					JOINT RightHand
					{
						OFFSET -3.444170 -0.000000 -0.000000 
						CHANNELS 3 Zrotation Yrotation Xrotation
						JOINT RightHandIndex1
						{
							OFFSET -0.622530 -0.000000 -0.000000 
							CHANNELS 3 Zrotation Yrotation Xrotation
							End Site
							{
								OFFSET 0.000000 0.000000 0.000000 
							}
						}
					}
				}
			}
		}
	}
}
MOTION
Frames: 13
Frame Time: 0.041667
1.333446 16.439597 7.437744 -170.831920 -50.133051 -176.778704 -23.227068 -30.099232 -25.083618 7.849571 8.262258 38.914655 0.811747 -12.794554 -21.951524 0.010700 -0.669400 -1.839700 39.683788 34.939568 -17.885700 -8.246825 -8.734222 42.522091 4.194121 30.936980 -6.368116 -4.780500 -13.132200 39.865500 10.335707 -2.281055 3.566689 0.684943 -1.307315 -2.659265 6.860343 -14.088349 22.861938 0.648600 -6.592900 12.298600 -89.643657 5.243166 9.256309 29.039667 -35.093352 -6.133579 1.179191 3.501576 5.244472 -7.125000 0.000000 0.000000 82.734173 0.241828 11.851091 -27.631181 34.920398 -6.404159 -1.910733 -0.129854 -11.907235 7.125000 0.000000 0.000000 
1.287186 16.445777 7.456102 -170.887270 -49.283368 -176.659686 -23.576649 -29.622043 -24.779646 7.845287 8.249083 38.833152 0.830910 -12.380463 -21.853985 0.000900 -0.193000 -0.530200 39.508361 34.979852 -18.022386 -8.278817 -8.768762 42.668671 4.311128 31.411217 -6.245731 -4.661300 -12.992000 39.338400 10.355336 -2.332919 3.352835 0.628684 -1.343815 -2.800778 6.824069 -14.011722 22.968108 0.645200 -6.579500 12.353400 -89.715428 5.330345 9.419939 29.035938 -35.090320 -6.133422 1.141022 3.510131 5.114268 -7.125000 0.000000 0.000000 82.720187 0.039542 11.492159 -27.689966 34.988361 -6.425144 -1.889502 -0.150517 -12.067917 7.125000 0.000000 0.000000 
1.246743 16.449958 7.472370 -171.171957 -48.343280 -176.274210 -24.038162 -29.105656 -24.620105 7.835662 8.235276 38.744562 0.865821 -11.819082 -21.747829 0.000600 0.156600 0.430200 39.113975 35.203554 -18.378067 -8.318184 -8.826974 42.865570 4.428940 31.758187 -5.973489 -4.595400 -12.913100 39.044200 10.437016 -2.385322 3.161550 0.709189 -1.381142 -2.848051 6.759283 -13.881758 23.110203 0.606600 -6.525900 12.453300 -89.796513 5.338405 9.589095 29.029610 -35.087467 -6.138916 1.159147 3.525690 4.917008 -7.125000 0.000000 0.000000 82.729808 0.002713 11.240284 -27.592697 34.869284 -6.369819 -1.889262 -0.145161 -11.975312 7.125000 0.000000 0.000000 
1.207754 16.450139 7.485367 -171.643327 -47.432765 -175.846884 -24.668147 -28.556632 -24.303728 7.819532 8.202075 38.601695 0.911031 -11.266208 -21.687748 0.002100 0.295200 0.811100 38.726970 35.138924 -18.701652 -8.377483 -8.906737 43.146968 4.477842 31.726595 -5.672331 -4.591200 -12.908000 39.025200 10.176755 -2.449849 2.940079 0.698433 -1.419161 -3.008527 6.731345 -13.758357 23.221071 0.560200 -6.456000 12.474100 -89.528920 5.534169 9.958074 29.084917 -35.139711 -6.169360 1.170126 3.537595 4.582438 -7.125000 0.000000 0.000000 83.061961 -0.134610 10.892620 -27.413839 34.664695 -6.276852 -1.889542 -0.118073 -11.460938 7.125000 0.000000 0.000000 
1.170583 16.450685 7.493819 -171.872409 -46.604407 -175.703826 -25.095156 -27.962550 -23.964610 7.808591 8.170744 38.468174 0.941196 -10.922278 -21.685719 0.001100 0.217000 0.596100 38.633838 34.978996 -18.838513 -8.435900 -8.987716 43.467047 4.418570 31.416846 -5.669352 -4.598900 -12.917300 39.059800 9.995154 -2.569887 2.990728 0.677027 -1.473866 -3.046835 6.742641 -13.622337 23.297454 0.543500 -6.380400 12.508400 -89.271300 5.561836 10.347435 29.153173 -35.211618 -6.206987 1.195313 3.561756 4.161184 -7.125000 0.000000 0.000000 83.365107 -0.112970 10.505531 -27.209458 34.433986 -6.174553 -1.903151 -0.090186 -11.091000 7.125000 0.000000 0.000000 
1.132957 16.455683 7.516722 -172.358809 -45.890218 -175.146085 -25.670124 -27.650569 -23.799565 7.784471 8.131285 38.316586 0.984749 -10.531922 -21.682169 0.000300 0.107200 0.294500 38.088849 34.849388 -19.420307 -8.488690 -9.097496 43.808677 4.375240 31.303753 -5.919431 -4.540400 -12.846800 38.797500 9.808240 -2.627577 2.615790 0.686924 -1.517066 -3.206206 6.689910 -13.567955 23.461342 0.516900 -6.366300 12.628000 -89.244662 5.644219 10.531737 29.130494 -35.165284 -6.196733 1.206741 3.568535 4.261032 -7.125000 0.000000 0.000000 83.495049 -0.309959 10.005149 -27.127111 34.331742 -6.132171 -1.928653 -0.070657 -11.090819 7.125000 0.000000 0.000000 
1.104328 16.459773 7.527628 -172.553246 -44.885570 -174.727340 -25.908641 -27.222161 -23.796592 7.759117 8.100368 38.157908 1.029783 -10.067142 -21.702551 0.000500 0.142800 0.392300 37.788186 35.207455 -19.946136 -8.515207 -9.204194 44.152768 4.192485 30.986066 -6.727221 -4.187700 -12.406000 37.183800 10.176224 -2.649346 2.542093 0.972645 -1.537992 -3.074880 6.601993 -13.485922 23.546131 0.478800 -6.347200 12.748200 -89.537375 5.386802 10.238727 29.001704 -35.023488 -6.131090 1.182480 3.527443 4.727455 -7.125000 0.000000 0.000000 83.377277 -0.217256 9.622113 -27.091794 34.286708 -6.108866 -1.931449 -0.067748 -10.998661 7.125000 0.000000 0.000000 
1.065339 16.465226 7.545168 -172.420931 -44.000331 -174.621938 -25.919604 -26.790234 -23.833461 7.758691 8.109978 38.143829 1.058246 -9.780542 -21.767897 0.002700 0.335400 0.921400 37.818771 35.075654 -20.388339 -8.556459 -9.311421 44.514329 4.044678 30.641638 -7.257091 -3.825000 -11.923900 35.463100 10.475751 -2.720366 2.600185 1.058969 -1.575827 -2.930467 6.566741 -13.407384 23.566345 0.471500 -6.328100 12.814500 -89.777124 5.099513 10.114300 28.922461 -34.949632 -6.093310 1.152115 3.504646 4.897591 -7.125000 0.000000 0.000000 83.288509 -0.086085 9.385801 -26.992510 34.167944 -6.060419 -1.954468 -0.058184 -11.663574 7.125000 0.000000 0.000000 
1.022806 16.471951 7.564617 -172.797278 -43.339203 -174.099907 -26.363816 -26.579430 -23.827695 7.758080 8.116699 38.163852 1.092794 -9.556295 -21.833138 0.014100 0.767500 2.109200 37.392480 34.330913 -21.226411 -8.630702 -9.458246 44.945531 4.012524 30.399465 -7.309918 -3.587900 -11.590800 34.299500 10.335321 -2.820288 2.299757 1.069417 -1.632782 -3.011408 6.565338 -13.309844 23.649633 0.485500 -6.301700 12.860900 -89.762052 5.157290 10.239361 28.938021 -34.959262 -6.099287 1.133946 3.511130 4.889723 -7.125000 0.000000 0.000000 83.439883 -0.345375 8.789874 -27.059306 34.247671 -6.087733 -1.946541 -0.070229 -11.494994 7.125000 0.000000 0.000000 
1.006628 16.461045 7.595427 -172.285418 -42.167220 -173.957039 -25.771925 -26.465190 -24.532247 7.768327 8.201940 38.338817 1.141285 -9.001875 -21.947274 0.040800 1.303700 3.584800 37.618980 34.293370 -22.262519 -8.684084 -9.610758 45.379734 3.971270 29.998290 -6.998456 -3.396900 -11.311400 33.337500 10.578287 -2.659397 1.960386 0.961176 -1.575064 -3.104544 6.568133 -13.185345 23.731249 0.479200 -6.238600 12.938100 -89.635767 5.045508 10.344764 28.984859 -35.011640 -6.121201 1.138183 3.525596 4.761243 -7.125000 0.000000 0.000000 83.655549 -0.319317 8.265681 -27.072563 34.267766 -6.087945 -1.929814 -0.096640 -11.007575 7.125000 0.000000 0.000000 
0.975819 16.458228 7.613422 -172.105286 -41.093727 -173.776665 -25.625569 -26.304890 -24.719228 7.771760 8.244647 38.420468 1.216112 -8.421156 -22.158018 0.062300 1.610700 4.431000 37.665541 34.109996 -23.029908 -8.751733 -9.755410 45.840261 3.928332 29.722611 -6.919205 -3.190200 -10.996700 32.268800 10.495836 -2.489330 1.636312 0.795858 -1.506090 -3.226911 6.595533 -13.156389 23.825764 0.484400 -6.220700 12.994700 -89.351167 5.196517 10.794546 29.076457 -35.085651 -6.164587 1.143190 3.552859 4.488412 -7.125000 0.000000 0.000000 83.995629 -0.424441 7.534321 -26.978931 34.167718 -6.034754 -1.918431 -0.090822 -10.461529 7.125000 0.000000 0.000000 
0.936284 16.463590 7.627691 -172.199286 -40.148941 -173.398676 -25.785287 -26.174625 -24.815696 7.773379 8.275586 38.494599 1.304856 -7.805095 -22.408757 0.065100 1.646200 4.528900 37.443430 33.965770 -23.770123 -8.807079 -9.900023 46.293351 3.771017 29.289841 -7.477426 -2.816000 -10.391100 30.252800 10.379211 -2.529169 1.674808 0.733861 -1.522329 -3.067820 6.618224 -12.938678 23.817104 0.490200 -6.117200 12.988900 -89.219887 5.080588 11.056399 29.100414 -35.108117 -6.179683 1.162389 3.555670 4.563926 -7.125000 0.000000 0.000000 84.205494 -0.321159 7.033211 -26.936299 34.124617 -6.007230 -1.905653 -0.079572 -10.020692 7.125000 0.000000 0.000000 
0.898749 16.469770 7.640778 -172.391649 -39.238512 -173.027472 -26.092536 -26.011328 -24.725555 7.759933 8.267868 38.444778 1.374587 -7.228074 -22.547728 0.082800 1.856200 5.108300 37.198727 33.665823 -24.432735 -8.874107 -10.040557 46.744407 3.655994 28.866034 -7.787097 -2.689000 -10.173700 29.541000 10.218249 -2.551562 1.454479 0.692465 -1.539098 -3.117082 6.589362 -12.737735 23.809208 0.466000 -6.030100 12.938400 -89.085901 5.179154 11.240233 29.148967 -35.153571 -6.205030 1.181100 3.547944 4.780603 -7.125000 0.000000 0.000000 84.358845 -0.505019 6.730735 -26.968973 34.156294 -6.017746 -1.896091 -0.073666 -9.918353 7.125000 0.000000 0.000000 
